<?xml version="1.0" encoding="UTF-8"?>
<svg xmlns="http://www.w3.org/2000/svg" viewBox="0 0 539.2 240" width="539" height="240" role="img" aria-label="VVW TM Slot-Opt Dispatcher">
  <title>VVW TM — Slot-Opt Dispatcher</title>
  <g transform="translate(16 16)">
    <g fill="#0a1f3a">
      <path d="M49.10 144L29.38 144L29.38 54.00L1.58 54.00L1.58 36.72L76.46 36.72L76.46 54.00L49.10 54.00L49.10 144Z M229.68 144L210.10 144L210.10 36.72L228.82 36.72L264.38 85.10L299.38 36.72L318.10 36.72L318.10 144L298.37 144L298.37 71.14L265.25 115.20L262.94 115.20L229.68 69.84L229.68 144Z"></path>
    </g>
    <g transform="translate(85.248 36.72) scale(1.0728)">
      <path d="M50 4 L90 27 L90 73 L50 96 L10 73 L10 27 Z" fill="#1956a8"></path>
      <g transform="translate(0 3)">
        <path d="M30 24 L70 24 L70 32 Q70 52 56 56 L56 66 L62 66 L62 74 L38 74 L38 66 L44 66 L44 56 Q30 52 30 32 Z" fill="#ffcb1f"></path>
        <path d="M30 28 Q20 30 22 44 Q24 52 32 52" stroke="#ffcb1f" stroke-width="4" fill="none" stroke-linecap="round"></path>
        <path d="M70 28 Q80 30 78 44 Q76 52 68 52" stroke="#ffcb1f" stroke-width="4" fill="none" stroke-linecap="round"></path>
        <circle cx="50" cy="40" r="7" fill="#1956a8"></circle>
        <path d="M50 33 Q47 36.5 50 40 Q53 43.5 50 47" stroke="#ffcb1f" stroke-width="1.4" fill="none"></path>
        <path d="M43 40 Q46.5 38 50 40 Q53.5 42 57 40" stroke="#ffcb1f" stroke-width="1.4" fill="none"></path>
      </g>
    </g>
    <g fill="#1956a8">
      <path d="M12.17 204.43L12.17 204.43Q9.61 204.43 7.47 203.50Q5.33 202.56 3.80 200.89Q2.27 199.21 1.58 197.05L1.58 197.05L5.18 195.54Q6.12 198.02 8.01 199.36Q9.90 200.69 12.35 200.69L12.35 200.69Q14.51 200.69 15.82 199.70Q17.14 198.71 17.14 197.05L17.14 197.05Q17.14 195.58 16.29 194.71Q15.44 193.85 13.86 193.34L13.86 193.34L8.82 191.76Q5.80 190.82 4.21 188.90Q2.63 186.97 2.63 184.38L2.63 184.38Q2.63 182.15 3.74 180.42Q4.86 178.69 6.80 177.72Q8.75 176.75 11.30 176.75L11.30 176.75Q13.68 176.75 15.68 177.59Q17.68 178.44 19.10 179.93Q20.52 181.43 21.17 183.34L21.17 183.34L17.64 184.88Q16.85 182.76 15.17 181.61Q13.50 180.46 11.30 180.46L11.30 180.46Q9.29 180.46 8.06 181.46Q6.84 182.47 6.84 184.16L6.84 184.16Q6.84 185.46 7.67 186.47Q8.50 187.48 10.19 187.98L10.19 187.98L14.87 189.46Q21.31 191.47 21.31 196.76L21.31 196.76Q21.31 199.03 20.14 200.76Q18.97 202.49 16.92 203.46Q14.87 204.43 12.17 204.43Z M46.70 204L30.86 204L30.86 177.18L35.11 177.18L35.11 200.22L46.70 200.22L46.70 204Z M68.10 204.43L68.10 204.43Q65.18 204.43 62.66 203.41Q60.14 202.38 58.27 200.51Q56.40 198.64 55.34 196.10Q54.28 193.56 54.28 190.57L54.28 190.57Q54.28 187.58 55.32 185.06Q56.36 182.54 58.25 180.67Q60.14 178.80 62.66 177.77Q65.18 176.75 68.10 176.75L68.10 176.75Q71.02 176.75 73.54 177.77Q76.06 178.80 77.95 180.67Q79.84 182.54 80.88 185.06Q81.92 187.58 81.92 190.57L81.92 190.57Q81.92 193.56 80.86 196.10Q79.80 198.64 77.93 200.51Q76.06 202.38 73.54 203.41Q71.02 204.43 68.10 204.43ZM68.10 200.54L68.10 200.54Q70.87 200.54 73.03 199.23Q75.19 197.92 76.45 195.67Q77.71 193.42 77.71 190.57L77.71 190.57Q77.71 187.76 76.47 185.51Q75.23 183.26 73.05 181.93Q70.87 180.60 68.10 180.60L68.10 180.60Q65.33 180.60 63.15 181.93Q60.97 183.26 59.75 185.51Q58.52 187.76 58.52 190.57L58.52 190.57Q58.52 193.42 59.77 195.67Q61.01 197.92 63.17 199.23Q65.33 200.54 68.10 200.54Z M100.44 204L96.23 204L96.23 180.96L89.10 180.96L89.10 177.18L107.46 177.18L107.46 180.96L100.44 180.96L100.44 204Z M130.04 196.04L115.64 196.04L115.64 192.44L130.04 192.44L130.04 196.04Z M153.64 204.43L153.64 204.43Q150.72 204.43 148.20 203.41Q145.68 202.38 143.81 200.51Q141.94 198.64 140.87 196.10Q139.81 193.56 139.81 190.57L139.81 190.57Q139.81 187.58 140.86 185.06Q141.90 182.54 143.79 180.67Q145.68 178.80 148.20 177.77Q150.72 176.75 153.64 176.75L153.64 176.75Q156.55 176.75 159.07 177.77Q161.59 178.80 163.48 180.67Q165.37 182.54 166.42 185.06Q167.46 187.58 167.46 190.57L167.46 190.57Q167.46 193.56 166.40 196.10Q165.34 198.64 163.46 200.51Q161.59 202.38 159.07 203.41Q156.55 204.43 153.64 204.43ZM153.64 200.54L153.64 200.54Q156.41 200.54 158.57 199.23Q160.73 197.92 161.99 195.67Q163.25 193.42 163.25 190.57L163.25 190.57Q163.25 187.76 162.01 185.51Q160.76 183.26 158.59 181.93Q156.41 180.60 153.64 180.60L153.64 180.60Q150.86 180.60 148.69 181.93Q146.51 183.26 145.28 185.51Q144.06 187.76 144.06 190.57L144.06 190.57Q144.06 193.42 145.30 195.67Q146.54 197.92 148.70 199.23Q150.86 200.54 153.64 200.54Z M181.26 204L177.01 204L177.01 177.18L186.77 177.18Q189.47 177.18 191.54 178.19Q193.61 179.20 194.76 181.07Q195.91 182.94 195.91 185.57L195.91 185.57Q195.91 188.16 194.74 190.03Q193.57 191.90 191.52 192.91Q189.47 193.92 186.77 193.92L186.77 193.92L181.26 193.92L181.26 204ZM181.26 180.96L181.26 190.14L186.88 190.14Q189.04 190.14 190.37 188.90Q191.70 187.66 191.70 185.53L191.70 185.53Q191.70 183.44 190.37 182.20Q189.04 180.96 186.88 180.96L186.88 180.96L181.26 180.96Z M214.03 204L209.82 204L209.82 180.96L202.69 180.96L202.69 177.18L221.05 177.18L221.05 180.96L214.03 180.96L214.03 204Z  M248.90 204L240.12 204L240.12 177.18L248.90 177.18Q253.08 177.18 256.16 178.87Q259.24 180.56 260.93 183.57Q262.62 186.58 262.62 190.57L262.62 190.57Q262.62 194.53 260.93 197.57Q259.24 200.62 256.16 202.31Q253.08 204 248.90 204L248.90 204ZM244.37 180.96L244.37 200.22L248.98 200.22Q251.82 200.22 253.93 199.03Q256.03 197.84 257.18 195.68Q258.34 193.52 258.34 190.57L258.34 190.57Q258.34 187.62 257.17 185.46Q256.00 183.30 253.91 182.13Q251.82 180.96 248.98 180.96L248.98 180.96L244.37 180.96Z M275.84 204L271.60 204L271.60 177.18L275.84 177.18L275.84 204Z M295.58 204.43L295.58 204.43Q293.03 204.43 290.89 203.50Q288.74 202.56 287.21 200.89Q285.68 199.21 285.00 197.05L285.00 197.05L288.60 195.54Q289.54 198.02 291.43 199.36Q293.32 200.69 295.76 200.69L295.76 200.69Q297.92 200.69 299.24 199.70Q300.55 198.71 300.55 197.05L300.55 197.05Q300.55 195.58 299.71 194.71Q298.86 193.85 297.28 193.34L297.28 193.34L292.24 191.76Q289.21 190.82 287.63 188.90Q286.04 186.97 286.04 184.38L286.04 184.38Q286.04 182.15 287.16 180.42Q288.28 178.69 290.22 177.72Q292.16 176.75 294.72 176.75L294.72 176.75Q297.10 176.75 299.09 177.59Q301.09 178.44 302.51 179.93Q303.94 181.43 304.58 183.34L304.58 183.34L301.06 184.88Q300.26 182.76 298.59 181.61Q296.92 180.46 294.72 180.46L294.72 180.46Q292.70 180.46 291.48 181.46Q290.26 182.47 290.26 184.16L290.26 184.16Q290.26 185.46 291.08 186.47Q291.91 187.48 293.60 187.98L293.60 187.98L298.28 189.46Q304.73 191.47 304.73 196.76L304.73 196.76Q304.73 199.03 303.56 200.76Q302.39 202.49 300.34 203.46Q298.28 204.43 295.58 204.43Z M318.53 204L314.28 204L314.28 177.18L324.04 177.18Q326.74 177.18 328.81 178.19Q330.88 179.20 332.03 181.07Q333.18 182.94 333.18 185.57L333.18 185.57Q333.18 188.16 332.01 190.03Q330.84 191.90 328.79 192.91Q326.74 193.92 324.04 193.92L324.04 193.92L318.53 193.92L318.53 204ZM318.53 180.96L318.53 190.14L324.14 190.14Q326.30 190.14 327.64 188.90Q328.97 187.66 328.97 185.53L328.97 185.53Q328.97 183.44 327.64 182.20Q326.30 180.96 324.14 180.96L324.14 180.96L318.53 180.96Z M344.50 204L339.96 204L349.39 177.18L354.65 177.18L364.08 204L359.54 204L357.49 197.99L346.58 197.99L344.50 204ZM352.02 181.90L347.81 194.21L356.20 194.21L352.02 181.90Z M381.01 204L376.80 204L376.80 180.96L369.67 180.96L369.67 177.18L388.03 177.18L388.03 180.96L381.01 180.96L381.01 204Z M408.49 204.43L408.49 204.43Q405.65 204.43 403.22 203.41Q400.79 202.38 398.99 200.51Q397.19 198.64 396.20 196.12Q395.21 193.60 395.21 190.57L395.21 190.57Q395.21 187.58 396.20 185.06Q397.19 182.54 398.97 180.67Q400.75 178.80 403.18 177.77Q405.61 176.75 408.49 176.75L408.49 176.75Q411.30 176.75 413.55 177.72Q415.80 178.69 417.37 180.28Q418.93 181.86 419.62 183.66L419.62 183.66L415.80 185.46Q414.94 183.30 413.05 181.95Q411.16 180.60 408.49 180.60L408.49 180.60Q405.83 180.60 403.78 181.86Q401.72 183.12 400.59 185.37Q399.46 187.62 399.46 190.57L399.46 190.57Q399.46 193.56 400.59 195.81Q401.72 198.06 403.78 199.30Q405.83 200.54 408.49 200.54L408.49 200.54Q411.16 200.54 413.05 199.21Q414.94 197.88 415.80 195.72L415.80 195.72L419.62 197.52Q418.93 199.36 417.37 200.92Q415.80 202.49 413.55 203.46Q411.30 204.43 408.49 204.43Z M433.02 204L428.77 204L428.77 177.18L433.02 177.18L433.02 188.99L445.44 188.99L445.44 177.18L449.65 177.18L449.65 204L445.44 204L445.44 192.77L433.02 192.77L433.02 204Z M477.67 204L460.00 204L460.00 177.18L477.67 177.18L477.67 180.96L464.24 180.96L464.24 188.66L476.95 188.66L476.95 192.44L464.24 192.44L464.24 200.22L477.67 200.22L477.67 204Z M490.68 204L486.43 204L486.43 177.18L496.19 177.18Q498.89 177.18 500.94 178.19Q502.99 179.20 504.16 181.07Q505.33 182.94 505.33 185.57L505.33 185.57Q505.33 188.38 503.95 190.34Q502.56 192.30 500.22 193.20L500.22 193.20L506.41 204L501.59 204L495.90 193.92L490.68 193.92L490.68 204ZM490.68 180.96L490.68 190.14L496.26 190.14Q498.42 190.14 499.75 188.90Q501.08 187.66 501.08 185.53L501.08 185.53Q501.08 183.44 499.75 182.20Q498.42 180.96 496.26 180.96L496.26 180.96L490.68 180.96Z"></path>
    </g>
  </g>
</svg>